<?xml version="1.0" encoding="UTF-8" standalone="no"?>
<!-- Created with Inkscape (http://www.inkscape.org/) -->

<svg
   xmlns:dc="http://purl.org/dc/elements/1.1/"
   xmlns:cc="http://creativecommons.org/ns#"
   xmlns:rdf="http://www.w3.org/1999/02/22-rdf-syntax-ns#"
   xmlns:svg="http://www.w3.org/2000/svg"
   xmlns="http://www.w3.org/2000/svg"
   xmlns:xlink="http://www.w3.org/1999/xlink"
   xmlns:sodipodi="http://sodipodi.sourceforge.net/DTD/sodipodi-0.dtd"
   xmlns:inkscape="http://www.inkscape.org/namespaces/inkscape"
   width="110"
   height="110"
   id="svg13195"
   version="1.1"
   inkscape:version="0.48.1 r9760"
   sodipodi:docname="thunder.svg">
  <defs
     id="defs13197">
    <linearGradient
       inkscape:collect="always"
       xlink:href="#linearGradient6147"
       id="linearGradient11193"
       gradientUnits="userSpaceOnUse"
       x1="148.13887"
       y1="979.70697"
       x2="119.67783"
       y2="917.65839" />
    <linearGradient
       inkscape:collect="always"
       id="linearGradient6147">
      <stop
         style="stop-color:aqua;stop-opacity:1;"
         offset="0"
         id="stop6149" />
      <stop
         style="stop-color:white;stop-opacity:1"
         offset="1"
         id="stop6151" />
    </linearGradient>
    <filter
       id="filter3398"
       inkscape:label="Glow"
       inkscape:menu="Shadows and Glows"
       inkscape:menu-tooltip="Glow of object's own color at the edges"
       x="-0.40000001"
       y="-0.40000001"
       width="1.8"
       height="1.8"
       color-interpolation-filters="sRGB">
      <feGaussianBlur
         stdDeviation="10.141145374449339"
         id="feGaussianBlur3400"
         result="result7" />
      <feColorMatrix
         id="feColorMatrix3402"
         result="result9"
         values="1 0 0 0 0.1 0 1 0 0 0.1 0 0 1 0 0.1 0 0 0 1 -0.5 " />
      <feColorMatrix
         values="10 0 0 0 0 0 10 0 0 0 0 0 10 0 0 0 0 0 5 0 "
         result="result9"
         id="feColorMatrix3404" />
      <feMerge
         id="feMerge3406">
        <feMergeNode
           inkscape:collect="always"
           id="feMergeNode3408"
           in="result7" />
        <feMergeNode
           inkscape:collect="always"
           id="feMergeNode3410"
           in="result9" />
      </feMerge>
    </filter>
    <filter
       color-interpolation-filters="sRGB"
       inkscape:collect="always"
       id="filter6242-7"
       x="-0.088121623"
       width="1.1762432"
       y="-0.10542539"
       height="1.2108508">
      <feGaussianBlur
         inkscape:collect="always"
         stdDeviation="1.8310201"
         id="feGaussianBlur6244-2" />
    </filter>
    <linearGradient
       inkscape:collect="always"
       xlink:href="#linearGradient4164"
       id="linearGradient11195"
       gradientUnits="userSpaceOnUse"
       gradientTransform="translate(89.601991,-96.746523)"
       x1="-788.48383"
       y1="502.75394"
       x2="-652.08984"
       y2="460.25394" />
    <linearGradient
       inkscape:collect="always"
       id="linearGradient4164">
      <stop
         style="stop-color:#57646d;stop-opacity:1;"
         offset="0"
         id="stop4166" />
      <stop
         style="stop-color:#57646d;stop-opacity:0;"
         offset="1"
         id="stop4168" />
    </linearGradient>
    <filter
       color-interpolation-filters="sRGB"
       inkscape:collect="always"
       id="filter4184-9">
      <feGaussianBlur
         inkscape:collect="always"
         stdDeviation="1.0373252"
         id="feGaussianBlur4186-7" />
    </filter>
    <filter
       color-interpolation-filters="sRGB"
       inkscape:collect="always"
       id="filter6014-0"
       x="-0.065125003"
       width="1.13025"
       y="-0.18254012"
       height="1.3650802">
      <feGaussianBlur
         inkscape:collect="always"
         stdDeviation="0.98679277"
         id="feGaussianBlur6016-2" />
    </filter>
    <filter
       color-interpolation-filters="sRGB"
       inkscape:collect="always"
       id="filter6032-7"
       x="-0.029089874"
       width="1.0581797"
       y="-0.13716586"
       height="1.2743317">
      <feGaussianBlur
         inkscape:collect="always"
         stdDeviation="0.69736748"
         id="feGaussianBlur6034-9" />
    </filter>
    <filter
       color-interpolation-filters="sRGB"
       inkscape:collect="always"
       id="filter6268-7"
       x="-0.040561985"
       width="1.0811239"
       y="-0.32008684"
       height="1.6401737">
      <feGaussianBlur
         inkscape:collect="always"
         stdDeviation="1.5493216"
         id="feGaussianBlur6270-6" />
    </filter>
    <filter
       color-interpolation-filters="sRGB"
       inkscape:collect="always"
       id="filter4261-6"
       x="-0.059378814"
       width="1.1187576"
       y="-0.14350291"
       height="1.2870058">
      <feGaussianBlur
         inkscape:collect="always"
         stdDeviation="1.6347286"
         id="feGaussianBlur4263-4" />
    </filter>
    <linearGradient
       inkscape:collect="always"
       xlink:href="#linearGradient5872"
       id="linearGradient11197"
       gradientUnits="userSpaceOnUse"
       gradientTransform="translate(401.03056,131.8249)"
       x1="-1055.266"
       y1="282.49088"
       x2="-1066.5084"
       y2="226.34329" />
    <linearGradient
       id="linearGradient5872"
       inkscape:collect="always">
      <stop
         id="stop5874"
         offset="0"
         style="stop-color:#ccc;stop-opacity:1;" />
      <stop
         id="stop5876"
         offset="1"
         style="stop-color:gray;stop-opacity:1" />
    </linearGradient>
    <filter
       color-interpolation-filters="sRGB"
       inkscape:collect="always"
       id="filter4210-5">
      <feGaussianBlur
         inkscape:collect="always"
         stdDeviation="1.8857158"
         id="feGaussianBlur4212-6" />
    </filter>
    <filter
       color-interpolation-filters="sRGB"
       inkscape:collect="always"
       id="filter4331-0"
       x="-0.12062609"
       width="1.2412522"
       y="-0.35448036"
       height="1.7089607">
      <feGaussianBlur
         inkscape:collect="always"
         stdDeviation="1.918981"
         id="feGaussianBlur4333-2" />
    </filter>
    <filter
       color-interpolation-filters="sRGB"
       inkscape:collect="always"
       id="filter5968-6"
       x="-0.13387503"
       width="1.2677501"
       y="-0.42839974"
       height="1.8567995">
      <feGaussianBlur
         inkscape:collect="always"
         stdDeviation="1.3523419"
         id="feGaussianBlur5970-5" />
    </filter>
    <filter
       color-interpolation-filters="sRGB"
       inkscape:collect="always"
       id="filter6074-9"
       x="-0.032830186"
       width="1.0656604"
       y="-0.34800014"
       height="1.6960003">
      <feGaussianBlur
         inkscape:collect="always"
         stdDeviation="0.36618025"
         id="feGaussianBlur6076-6" />
    </filter>
    <filter
       color-interpolation-filters="sRGB"
       inkscape:collect="always"
       id="filter6192-2"
       x="-0.27733347"
       width="1.5546669"
       y="-0.29951984"
       height="1.5990397">
      <feGaussianBlur
         inkscape:collect="always"
         stdDeviation="0.7879194"
         id="feGaussianBlur6194-5" />
    </filter>
    <filter
       color-interpolation-filters="sRGB"
       inkscape:collect="always"
       id="filter6354-5"
       x="-0.11142861"
       width="1.2228572"
       y="-0.4679994"
       height="1.9359988">
      <feGaussianBlur
         inkscape:collect="always"
         stdDeviation="0.98489887"
         id="feGaussianBlur6356-7" />
    </filter>
    <filter
       color-interpolation-filters="sRGB"
       inkscape:collect="always"
       id="filter10792">
      <feGaussianBlur
         inkscape:collect="always"
         stdDeviation="0.88901514"
         id="feGaussianBlur10794" />
    </filter>
    <linearGradient
       inkscape:collect="always"
       xlink:href="#linearGradient10774"
       id="linearGradient11199"
       gradientUnits="userSpaceOnUse"
       gradientTransform="matrix(0.85336399,0,0,0.85336399,-1547.6058,367.31345)"
       x1="1923.6532"
       y1="42.695168"
       x2="2046.7528"
       y2="229.14648" />
    <linearGradient
       inkscape:collect="always"
       id="linearGradient10774">
      <stop
         style="stop-color:white;stop-opacity:1;"
         offset="0"
         id="stop10776" />
      <stop
         style="stop-color:aqua;stop-opacity:1"
         offset="1"
         id="stop10778" />
    </linearGradient>
    <filter
       color-interpolation-filters="sRGB"
       inkscape:collect="always"
       id="filter4079">
      <feGaussianBlur
         inkscape:collect="always"
         stdDeviation="0.10115383"
         id="feGaussianBlur4081" />
    </filter>
    <filter
       color-interpolation-filters="sRGB"
       inkscape:collect="always"
       id="filter4149"
       x="-0.13088678"
       width="1.2617736"
       y="-0.081959963"
       height="1.1639199">
      <feGaussianBlur
         inkscape:collect="always"
         stdDeviation="2.1335066"
         id="feGaussianBlur4151" />
    </filter>
    <linearGradient
       inkscape:collect="always"
       xlink:href="#linearGradient10774"
       id="linearGradient11201"
       gradientUnits="userSpaceOnUse"
       gradientTransform="matrix(0.85336399,0,0,0.85336399,-1547.6058,367.31345)"
       x1="1923.6532"
       y1="42.695168"
       x2="2046.7528"
       y2="229.14648" />
    <linearGradient
       inkscape:collect="always"
       xlink:href="#linearGradient11911"
       id="linearGradient11687"
       gradientUnits="userSpaceOnUse"
       x1="-519.81396"
       y1="1365.2729"
       x2="-506.78979"
       y2="1459.9896" />
    <linearGradient
       inkscape:collect="always"
       id="linearGradient11911">
      <stop
         style="stop-color:red;stop-opacity:1"
         offset="0"
         id="stop11913" />
      <stop
         style="stop-color:#a00;stop-opacity:1"
         offset="1"
         id="stop11915" />
    </linearGradient>
    <radialGradient
       inkscape:collect="always"
       xlink:href="#linearGradient11919"
       id="radialGradient11689"
       gradientUnits="userSpaceOnUse"
       gradientTransform="matrix(1,0,0,0.92465717,0,106.3748)"
       cx="-514.89893"
       cy="1419.6248"
       fx="-514.89893"
       fy="1419.6248"
       r="54.836674" />
    <linearGradient
       inkscape:collect="always"
       id="linearGradient11919">
      <stop
         id="stop11923"
         offset="0"
         style="stop-color:white;stop-opacity:1" />
      <stop
         id="stop11921"
         offset="1"
         style="stop-color:#f2f2f2;stop-opacity:1;" />
    </linearGradient>
    <filter
       color-interpolation-filters="sRGB"
       inkscape:collect="always"
       id="filter6242"
       x="-0.088121623"
       width="1.1762432"
       y="-0.10542539"
       height="1.2108508">
      <feGaussianBlur
         inkscape:collect="always"
         stdDeviation="1.8310201"
         id="feGaussianBlur6244" />
    </filter>
    <linearGradient
       inkscape:collect="always"
       xlink:href="#linearGradient4164-7"
       id="linearGradient11691"
       gradientUnits="userSpaceOnUse"
       gradientTransform="translate(89.601991,-96.746523)"
       x1="-788.48383"
       y1="502.75394"
       x2="-652.08984"
       y2="460.25394" />
    <linearGradient
       inkscape:collect="always"
       id="linearGradient4164-7">
      <stop
         style="stop-color:#57646d;stop-opacity:1;"
         offset="0"
         id="stop4166-4" />
      <stop
         style="stop-color:#57646d;stop-opacity:0;"
         offset="1"
         id="stop4168-3" />
    </linearGradient>
    <filter
       color-interpolation-filters="sRGB"
       inkscape:collect="always"
       id="filter4184">
      <feGaussianBlur
         inkscape:collect="always"
         stdDeviation="1.0373252"
         id="feGaussianBlur4186" />
    </filter>
    <filter
       color-interpolation-filters="sRGB"
       inkscape:collect="always"
       id="filter6014"
       x="-0.065125003"
       width="1.13025"
       y="-0.18254012"
       height="1.3650802">
      <feGaussianBlur
         inkscape:collect="always"
         stdDeviation="0.98679277"
         id="feGaussianBlur6016" />
    </filter>
    <filter
       color-interpolation-filters="sRGB"
       inkscape:collect="always"
       id="filter6032"
       x="-0.029089874"
       width="1.0581797"
       y="-0.13716586"
       height="1.2743317">
      <feGaussianBlur
         inkscape:collect="always"
         stdDeviation="0.69736748"
         id="feGaussianBlur6034" />
    </filter>
    <filter
       color-interpolation-filters="sRGB"
       inkscape:collect="always"
       id="filter6268"
       x="-0.040561985"
       width="1.0811239"
       y="-0.32008684"
       height="1.6401737">
      <feGaussianBlur
         inkscape:collect="always"
         stdDeviation="1.5493216"
         id="feGaussianBlur6270" />
    </filter>
    <filter
       color-interpolation-filters="sRGB"
       inkscape:collect="always"
       id="filter4261"
       x="-0.059378814"
       width="1.1187576"
       y="-0.14350291"
       height="1.2870058">
      <feGaussianBlur
         inkscape:collect="always"
         stdDeviation="1.6347286"
         id="feGaussianBlur4263" />
    </filter>
    <linearGradient
       inkscape:collect="always"
       xlink:href="#linearGradient5872-2"
       id="linearGradient11693"
       gradientUnits="userSpaceOnUse"
       gradientTransform="translate(401.03056,131.8249)"
       x1="-1055.266"
       y1="282.49088"
       x2="-1066.5084"
       y2="226.34329" />
    <linearGradient
       id="linearGradient5872-2"
       inkscape:collect="always">
      <stop
         id="stop5874-0"
         offset="0"
         style="stop-color:#ccc;stop-opacity:1;" />
      <stop
         id="stop5876-4"
         offset="1"
         style="stop-color:gray;stop-opacity:1" />
    </linearGradient>
    <filter
       color-interpolation-filters="sRGB"
       inkscape:collect="always"
       id="filter4210">
      <feGaussianBlur
         inkscape:collect="always"
         stdDeviation="1.8857158"
         id="feGaussianBlur4212" />
    </filter>
    <filter
       color-interpolation-filters="sRGB"
       inkscape:collect="always"
       id="filter4331"
       x="-0.12062609"
       width="1.2412522"
       y="-0.35448036"
       height="1.7089607">
      <feGaussianBlur
         inkscape:collect="always"
         stdDeviation="1.918981"
         id="feGaussianBlur4333" />
    </filter>
    <filter
       color-interpolation-filters="sRGB"
       inkscape:collect="always"
       id="filter5968"
       x="-0.13387503"
       width="1.2677501"
       y="-0.42839974"
       height="1.8567995">
      <feGaussianBlur
         inkscape:collect="always"
         stdDeviation="1.3523419"
         id="feGaussianBlur5970" />
    </filter>
    <filter
       color-interpolation-filters="sRGB"
       inkscape:collect="always"
       id="filter6074"
       x="-0.032830186"
       width="1.0656604"
       y="-0.34800014"
       height="1.6960003">
      <feGaussianBlur
         inkscape:collect="always"
         stdDeviation="0.36618025"
         id="feGaussianBlur6076" />
    </filter>
    <filter
       color-interpolation-filters="sRGB"
       inkscape:collect="always"
       id="filter6192"
       x="-0.27733347"
       width="1.5546669"
       y="-0.29951984"
       height="1.5990397">
      <feGaussianBlur
         inkscape:collect="always"
         stdDeviation="0.7879194"
         id="feGaussianBlur6194" />
    </filter>
    <filter
       color-interpolation-filters="sRGB"
       inkscape:collect="always"
       id="filter6354"
       x="-0.11142861"
       width="1.2228572"
       y="-0.4679994"
       height="1.9359988">
      <feGaussianBlur
         inkscape:collect="always"
         stdDeviation="0.98489887"
         id="feGaussianBlur6356" />
    </filter>
  </defs>
  <sodipodi:namedview
     id="base"
     pagecolor="#ffffff"
     bordercolor="#666666"
     borderopacity="1.0"
     inkscape:pageopacity="0.0"
     inkscape:pageshadow="2"
     inkscape:zoom="0.35"
     inkscape:cx="-205"
     inkscape:cy="-82.142854"
     inkscape:document-units="px"
     inkscape:current-layer="layer1"
     showgrid="false"
     fit-margin-top="0"
     fit-margin-left="0"
     fit-margin-right="0"
     fit-margin-bottom="0"
     inkscape:window-width="1280"
     inkscape:window-height="930"
     inkscape:window-x="0"
     inkscape:window-y="32"
     inkscape:window-maximized="1" />
  <metadata
     id="metadata13200">
    <rdf:RDF>
      <cc:Work
         rdf:about="">
        <dc:format>image/svg+xml</dc:format>
        <dc:type
           rdf:resource="http://purl.org/dc/dcmitype/StillImage" />
        <dc:title></dc:title>
      </cc:Work>
    </rdf:RDF>
  </metadata>
  <g
     inkscape:label="Ebene 1"
     inkscape:groupmode="layer"
     id="layer1"
     transform="translate(-179.28571,-340.21933)">
    <g
       transform="translate(-36.178905,-241.0618)"
       style="display:inline"
       id="fog">
      <rect
         style="opacity:0;color:black;fill:#520;fill-opacity:1;fill-rule:nonzero;stroke:none;stroke-width:6.80000019;marker:none;visibility:visible;display:inline;overflow:visible;enable-background:accumulate"
         id="rect6158"
         width="110"
         height="110"
         x="215.46461"
         y="581.28113" />
      <g
         transform="translate(-34.949087,-16.640135)"
         id="g6205">
        <g
           id="g11933"
           transform="matrix(0.14572065,0.03709334,-0.03709334,0.14572065,309.61051,416.72025)">
          <path
             transform="matrix(3.7775207,-0.18464775,0.18464775,3.7775207,2137.3447,-3943.0479)"
             inkscape:transform-center-y="-56.664885"
             inkscape:transform-center-x="-0.57962825"
             d="m -463.51148,1458.5084 c -5.36541,8.227 -104.5299,2.8367 -108.97196,-5.9233 -4.44206,-8.7601 49.80827,-91.944 59.61575,-91.4109 9.80748,0.5331 54.72163,89.1072 49.35621,97.3342 z"
             inkscape:randomized="0"
             inkscape:rounded="0.09"
             inkscape:flatsided="true"
             sodipodi:arg2="2.018743"
             sodipodi:arg1="0.57790194"
             sodipodi:r2="15.972712"
             sodipodi:r1="63.00787"
             sodipodi:cy="1424.0892"
             sodipodi:cx="-516.28754"
             sodipodi:sides="3"
             id="path11905"
             style="color:black;fill:#ececec;fill-opacity:1;fill-rule:nonzero;stroke:none;stroke-width:0.55900002;marker:none;visibility:visible;display:inline;overflow:visible;enable-background:accumulate"
             sodipodi:type="star" />
          <path
             sodipodi:type="star"
             style="color:black;fill:url(#linearGradient11687);fill-opacity:1;fill-rule:nonzero;stroke:none;stroke-width:0.55900002;marker:none;visibility:visible;display:inline;overflow:visible;enable-background:accumulate"
             id="path11907"
             sodipodi:sides="3"
             sodipodi:cx="-516.28754"
             sodipodi:cy="1424.0892"
             sodipodi:r1="63.00787"
             sodipodi:r2="15.972712"
             sodipodi:arg1="0.57790194"
             sodipodi:arg2="2.018743"
             inkscape:flatsided="true"
             inkscape:rounded="0.09"
             inkscape:randomized="0"
             d="m -463.51148,1458.5084 c -5.36541,8.227 -104.5299,2.8367 -108.97196,-5.9233 -4.44206,-8.7601 49.80827,-91.944 59.61575,-91.4109 9.80748,0.5331 54.72163,89.1072 49.35621,97.3342 z"
             inkscape:transform-center-x="-0.55700521"
             inkscape:transform-center-y="-54.457255"
             transform="matrix(3.6303529,-0.17745409,0.17745409,3.6303529,2071.5616,-3729.3966)" />
          <path
             transform="matrix(2.6590451,-0.12997591,0.12997591,2.6590451,1637.3933,-2319.2977)"
             inkscape:transform-center-y="-39.887043"
             inkscape:transform-center-x="-0.40798395"
             d="m -463.51148,1458.5084 c -5.36541,8.227 -104.5299,2.8367 -108.97196,-5.9233 -4.44206,-8.7601 49.80827,-91.944 59.61575,-91.4109 9.80748,0.5331 54.72163,89.1072 49.35621,97.3342 z"
             inkscape:randomized="0"
             inkscape:rounded="0.09"
             inkscape:flatsided="true"
             sodipodi:arg2="2.018743"
             sodipodi:arg1="0.57790194"
             sodipodi:r2="15.972712"
             sodipodi:r1="63.00787"
             sodipodi:cy="1424.0892"
             sodipodi:cx="-516.28754"
             sodipodi:sides="3"
             id="path11909"
             style="color:black;fill:url(#radialGradient11689);fill-opacity:1;fill-rule:nonzero;stroke:none;stroke-width:0.55900002;marker:none;visibility:visible;display:inline;overflow:visible;enable-background:accumulate"
             sodipodi:type="star" />
          <text
             transform="matrix(0.99920387,0.03989521,-0.03989521,0.99920387,0,0)"
             sodipodi:linespacing="125%"
             id="text11929"
             y="1587.6368"
             x="452.03351"
             style="font-size:268.69229126px;font-style:normal;font-variant:normal;font-weight:normal;font-stretch:normal;line-height:125%;letter-spacing:0px;word-spacing:0px;fill:black;fill-opacity:1;stroke:none;font-family:Jomolhari;-inkscape-font-specification:Jomolhari"
             xml:space="preserve"><tspan
               y="1587.6368"
               x="452.03351"
               id="tspan11931"
               sodipodi:role="line">!</tspan></text>
        </g>
        <g
           id="g9908"
           transform="matrix(0.66344809,0,0,0.66344809,729.73385,404.39475)"
           style="opacity:0.7">
          <path
             sodipodi:nodetypes="aaaacaasscaaasaaaaaaa"
             inkscape:connector-curvature="0"
             id="path9910"
             d="m -639.6791,410.1577 c 2.67645,3.58539 8.70261,3.40967 13.13198,2.77792 2.64715,-0.37756 4.65107,-2.65073 7.07107,-3.78807 2.22116,-1.04389 4.41706,-2.27179 6.81853,-2.77792 5.76824,-1.21571 17.67767,-0.50508 17.67767,-0.50508 0,0 -15.24849,3.64212 -15.40483,-1.51523 -0.0646,-2.13028 4.20797,-0.67975 6.31346,-1.01015 2.18764,-0.34329 6.06091,3.03046 6.56599,-1.01015 0.50508,-4.04061 -0.75762,-3.53553 0.75761,-4.04061 1.51523,-0.50508 3.78808,-1.76777 3.78808,-1.76777 0,0 -3.94712,-3.16387 -6.06092,-4.54568 -1.86154,-1.2169 -5.15891,-1.15595 -5.80838,-3.283 -0.60466,-1.98028 1.21372,-4.19922 2.77792,-5.55584 1.20661,-1.04648 5.05077,-0.50508 4.54569,-1.51523 -0.50508,-1.01015 -2.01829,-3.36977 -3.53554,-4.54568 -2.17542,-1.68602 -4.97663,-2.37877 -7.57614,-3.283 -2.46855,-0.85868 -4.98467,-1.68071 -7.57614,-2.02031 -2.00318,-0.2625 -4.04149,-0.0593 -6.06092,0 -2.86581,0.0842 -5.97086,-0.66942 -8.5863,0.50508 -2.715,1.21921 -5.0657,3.61145 -6.31345,6.31345 -4.42557,9.58354 -8.83998,23.1082 -2.52538,31.56727 z"
             style="opacity:0.85;fill:#76797e;fill-opacity:1;stroke:none;filter:url(#filter6242)" />
          <path
             sodipodi:nodetypes="aaaaaaaasacaaaaaaaaaaaaaaaaaaaaaaaaaaaaaaaaaaaaaaaaaaaaaaa"
             inkscape:connector-curvature="0"
             id="path9912"
             d="m -656.46944,379.90137 c 2.21,-2.65234 5.5109,-4.32106 7.5,-7.14286 0.6755,-0.95833 0.7396,-2.26558 1.4286,-3.21429 0.9411,-1.29594 2.0155,-3.59438 3.5714,-3.21428 1.9762,0.48278 0.6022,4.38586 2.1429,5.71428 1.2909,1.11307 3.3026,1.22777 5,1.07143 1.541,-0.14195 3.4997,-0.45251 4.2857,-1.78571 0.5474,-0.92867 -0.7925,-2.22806 -0.3572,-3.21429 0.3269,-0.74068 -2.8201,-1.53486 1.9643,-1.42857 1.7176,0.0382 4.6119,1.41985 6.9643,1.25 2.0652,-0.14911 7.7666,-1.69245 5.8929,-1.96429 1.5471,2.94354 -4.4853,4.9264 -6.9643,7.14286 -1.0119,0.90472 -3.5474,1.18416 -3.2143,2.5 0.3554,1.40398 2.8431,0.84293 4.2857,0.71429 1.7628,-0.15719 3.4185,-0.9913 5,-1.78572 1.5342,-0.7707 2.5967,-2.54874 4.2857,-2.85714 1.5625,-0.28529 3.0801,0.78759 4.6429,1.07143 1.7725,0.32195 3.8163,1.64781 5.3571,0.71428 1.1917,-0.72206 1.9161,-2.62323 1.4286,-3.92857 -0.4289,-1.14819 -2.351,-0.91568 -3.2143,-1.78571 -1.0507,-1.05884 -3.0023,-2.70937 -2.1429,-3.92857 1.3194,-1.87167 4.4964,1.01883 6.7858,1.07143 1.0777,0.0248 2.153,-0.54643 3.21424,-0.35715 0.26207,0.0467 0.63986,0.10156 0.71429,0.35715 0.38815,1.33296 -2.01693,2.18882 -2.14283,3.57142 -0.1845,2.0259 2.7673,3.77822 2.14283,5.71429 -0.52705,1.63403 -2.69953,2.2001 -4.28573,2.85714 -1.6825,0.6969 -3.606,0.57152 -5.3571,1.07143 -2.9342,0.83766 -5.7744,1.99458 -8.5715,3.21429 -0.976,0.42562 -2.9792,0.3708 -2.8571,1.42857 0.2948,2.55292 4.9341,1.92931 7.5,1.78571 3.1582,-0.17675 5.7656,-3.17663 8.9286,-3.21428 1.5057,-0.0179 2.9285,0.77625 4.28569,1.42857 2.17262,1.04421 3.6935,3.53343 6.07142,3.92857 2.42103,0.4023 4.70702,-1.48584 7.14286,-1.78571 1.77233,-0.21818 3.89747,-1.02866 5.35714,0 1.44664,1.01947 2.69615,3.48237 1.78572,5 -1.67158,2.78643 -6.39361,1.40034 -9.64286,1.42857 -2.76118,0.024 -7.34986,-3.69393 -8.21428,-1.07143 -0.76739,2.32813 4.1094,2.77738 6.42857,3.57143 2.9628,1.01442 6.16524,1.69304 9.28571,1.42857 1.50047,-0.12717 2.84714,-0.98352 4.28572,-1.42857 0.82796,-0.25614 1.89339,-1.33328 2.5,-0.71429 1.13334,1.15647 -0.3258,3.45721 -1.42858,4.64286 -1.56588,1.68354 -4.1688,2.07606 -6.42857,2.5 -1.8721,0.35121 -3.8214,0.21239 -5.71428,0 -2.66909,-0.29949 -5.18806,-1.48623 -7.85715,-1.78572 -1.77458,-0.19912 -3.57933,-0.16781 -5.35711,0 -2.5337,0.23915 -5.0374,0.78666 -7.5,1.42858 -2.1858,0.56973 -4.199,1.78104 -6.4286,2.14285 -1.6452,0.26697 -4.1047,1.40578 -5,0 -1.0586,-1.66213 3.4532,-3.63244 2.5,-5.35714 -1.3928,-2.52009 -5.7334,-1.55757 -8.5714,-1.07143 -2.6238,0.44943 -5.0801,1.88884 -7.1429,3.57143 -1.6425,1.33975 -1.9288,4.29755 -3.9286,5 -3.4601,1.2154 -7.095,-1.90815 -10.7142,-2.5 -7.4352,-1.21585 -19.2357,4.64713 -22.5,-2.14286 -3.3908,-7.05278 7.8477,-13.6308 12.8571,-19.64285 z"
             style="opacity:0.85;fill:url(#linearGradient11691);fill-opacity:1;stroke:none;filter:url(#filter4184)" />
          <path
             inkscape:connector-curvature="0"
             id="path9914"
             d="m -650.53824,388.69196 7.57614,1.51523 6.06092,2.0203 6.06092,0.50508 5.05076,-0.50508 c 0,0 0.50507,-1.01015 2.52538,-1.51522 2.0203,-0.50508 1.01015,-0.50508 3.03046,-1.01016 2.0203,-0.50507 4.54568,-1.51523 4.54568,-1.51523 l 1.51523,-1.01015 c 0,0 0,-1.01015 -2.52538,-1.51523 -2.52538,-0.50507 -3.53553,-5.05076 -3.53553,-5.05076 0,0 -3.03046,-1.51523 -5.55584,-0.50508 -2.52538,1.01016 -5.05076,3.03046 -8.08122,3.53554 -3.03046,0.50507 -9.09138,-1.01016 -9.09138,-1.01016 l -4.54568,3.03046 z"
             style="opacity:0.9;fill:#999;stroke:none;filter:url(#filter6014)" />
          <path
             inkscape:connector-curvature="0"
             id="path9916"
             d="m -685.13596,400.81379 5.3033,-2.0203 4.29314,1.76776 c 0,0 1.01016,-1.51523 2.27285,-1.76776 1.26269,-0.25254 3.78807,1.26269 4.79822,1.26269 1.01015,0 -5.55584,0 3.03046,0.50507 8.5863,0.50508 8.33376,1.51523 8.08122,0.25254 -0.25254,-1.26269 -3.283,-4.04061 0.75761,-3.283 4.04062,0.75762 4.04062,0.75762 4.04062,0.75762 l 6.06091,-1.51523 6.81853,3.283 3.03046,0.25253 c 0,0 4.54568,0.75762 5.80837,1.51523 1.2627,0.75762 5.80838,0.50508 1.2627,0.75762 -4.54569,0.25254 -3.78808,-1.76777 -6.31346,0.75761 -2.52538,2.52538 -5.3033,3.78807 -6.56599,3.78807 -1.26269,0 -4.04061,-0.75761 -6.31345,-0.75761 -2.27285,0 -4.04061,-0.50508 -5.05077,0.25254 -1.01015,0.75761 -1.76776,2.77792 -3.78807,2.27284 -2.0203,-0.50508 -7.57614,-2.0203 -7.57614,-2.0203 l -2.52538,0 -4.54569,-1.01016 c 0,0 -0.25254,-1.26269 -1.51523,-1.76776 -1.26269,-0.50508 -4.54568,-0.75762 -4.54568,-0.75762 l -3.03046,-0.25254 z"
             style="opacity:0.8;fill:#666;stroke:none;filter:url(#filter6032)" />
          <path
             inkscape:connector-curvature="0"
             id="path9918"
             d="m -640.68926,388.18689 14.39468,1.51522 c 0,0 5.3033,-2.77792 6.06091,-2.52538 0.75762,0.25254 5.05077,1.51523 5.05077,1.51523 0,0 5.55584,-0.25254 6.81853,-0.50507 1.26269,-0.25254 10.10152,-1.2627 10.10152,-1.2627 0,0 6.56599,3.53554 7.57615,3.53554 1.01015,0 13.38452,1.26269 13.38452,1.26269 l 16.16244,2.52538 -15.40483,2.02031 -16.41498,-0.50508 -8.58629,-0.25254 -18.18275,3.03046 -12.12183,-1.76777 -20.96067,1.76777 z"
             style="opacity:0.8;fill:#ccc;stroke:none;filter:url(#filter6268)" />
          <path
             sodipodi:nodetypes="cccccccccccccccccccccc"
             inkscape:connector-curvature="0"
             id="path9920"
             d="m -662.15499,399.80364 c 2.26414,3.14133 7.81969,0.75941 11.61675,0 2.14616,-0.42923 3.87479,-2.42004 6.06092,-2.52538 2.28727,-0.11021 4.28737,1.79302 6.56599,2.0203 1.68363,0.16793 3.40731,-0.10274 5.05076,-0.50507 2.6419,-0.64676 4.9053,-2.5161 7.57614,-3.03046 2.47981,-0.47757 5.05077,0 7.57615,0 1.85195,0 3.73048,0.31267 5.55584,0 2.99156,-0.51243 5.59473,-2.51803 8.58629,-3.03046 1.9913,-0.3411 4.8443,1.61291 6.06092,0 0.73809,-0.97851 5.37894,-0.90991 4.34699,-1.57124 -1.86441,-1.19483 -9.81863,-0.26518 -11.92314,-0.95414 -1.35767,-0.44446 -10.38858,0.50555 -5.70902,-3.3876 -1.08628,-6.28296 -7.7879,6.01574 -13.48387,5.91298 -2.34459,-0.0423 -6.58758,-0.18051 -6.566,-2.52538 0.0181,-1.9705 4.34632,-0.46457 5.55584,-2.0203 1.03852,-1.33578 1.58729,-3.75014 0.50508,-5.05077 -1.29669,-1.55839 -4.07285,-0.10813 -6.06092,-0.50507 -4.85574,-0.9695 -9.91613,-1.96517 -14.14213,-4.54569 -1.62565,-0.99267 -2.13613,-4.07343 -4.04061,-4.04061 -3.45392,0.0595 -5.30588,4.60677 -7.07107,7.57615 -3.26461,5.49169 -9.79649,12.99991 -6.06091,18.18274 z"
             style="opacity:0.8;fill:#999;fill-opacity:1;stroke:none;filter:url(#filter4261)" />
          <path
             sodipodi:nodetypes="cssssssccsccccsscccssscscscsccssssccsscscssccccccccccccc"
             inkscape:connector-curvature="0"
             id="path9922"
             d="m -642.90694,363.8249 c -3.9645,0.006 -4.9561,7.53842 -8.9063,7.875 -1.8107,0.15428 -2.847,-2.70541 -4.6562,-2.875 -6.9781,-0.65407 -12.7151,6.52894 -19.6562,7.5 -2.722,0.3808 -5.492,-1.25505 -8.1876,-0.71875 -3.29,0.65457 -11.87686,0.68339 -11.08026,3.94196 0.5654,2.31284 8.56156,-1.55951 9.26786,0.71429 0.6857,2.20746 -4.3947,2.02142 -5.6876,3.9375 -0.614,0.90981 0.1471,2.51302 -0.7187,3.1875 -3.2885,2.56156 -6.21014,1.19916 -10.35714,1.62054 -4.1369,0.42035 -14.18486,-3.27712 -14.29916,0.87946 -0.0579,2.10873 4.1306,0.96537 6.0626,1.8125 1.2714,0.55752 2.612,1.14331 3.5937,2.125 0.4908,0.49084 0.4481,1.45825 1.0625,1.78125 3.3786,1.77605 7.6303,-0.99139 11.4375,-0.71875 2.911,0.20846 5.7939,0.88927 8.5625,1.8125 3.9912,1.33092 7.4409,4.0288 11.4375,5.34375 1.7298,0.56916 4.303,-0.43181 5.3437,1.0625 1.3089,1.87903 -2.7901,5.27824 -1.0624,6.78125 2.1593,1.87855 5.3877,-2.07875 8.2187,-2.5 2.7082,-0.403 5.5049,-0.36344 8.2187,0 2.6906,0.36033 5.3193,1.15795 7.8438,2.15625 2.1295,0.84209 3.9461,2.3445 6.0625,3.21875 4.1419,1.71088 8.4478,4.63211 12.875,3.9375 3.2951,-0.517 29.65156,-8.14159 8.2187,-5.71875 -0.6221,-3.79216 -2.66174,0.81505 -11.0937,-3.21875 -2.04325,-0.97748 -5.5057,1.49667 -6.7813,-0.375 -1.06,-1.55541 0.49,-3.97424 1.7813,-5.34375 1.3194,-1.39932 4.8254,-0.31317 5.375,-2.15625 0.4152,-1.39257 -1.5166,-2.49272 -2.5,-3.5625 -1.2586,-1.36898 -2.4279,-3.4111 -4.2813,-3.5625 -2.3402,-0.19117 -4.0509,2.40494 -6.0937,3.5625 -1.2978,0.73539 -2.4354,1.90815 -3.9063,2.15625 -2.1422,0.36132 -4.9901,0.52636 -6.4374,-1.09375 -1.509,-1.68918 0.0876,-4.56396 -0.375,-6.78125 -0.2078,-0.9957 -1.5492,-1.95063 -1.0626,-2.84375 1.341,-2.46039 5.5001,-1.10299 8.2188,-1.78125 4.6805,-1.16768 9.319,-2.54442 13.9375,-3.9375 3.3521,-1.01111 3.94059,-1.98565 10,-3.21875 0.9225,-1.57013 11.12419,-2.70931 9.62059,-3.73661 -1.6968,-1.15931 -14.75909,-0.93495 -16.77689,-0.54464 -2.2693,0.43901 -4.5049,1.03574 -6.7812,1.4375 -2.4869,0.43893 -5.677,2.81012 -7.5,1.0625 -1.7273,-1.65589 -0.2487,-4.96773 0.7188,-7.15625 1.98996,-1.86847 14.25119,1.79963 0.3437,-6.0625 z m -43.5625,28.40625 3.9375,0.53125 4.8125,1.78125 2.8438,0.90625 2.3437,1.0625 -0.9063,0.875 -2.3124,-0.53125 -3.4063,-0.875 -2.6563,-1.625 -3.5937,-1.59375 z"
             style="opacity:0.95;fill:url(#linearGradient11693);fill-opacity:1;stroke:none;filter:url(#filter4210)" />
          <path
             sodipodi:nodetypes="zzzzzzzzzzzzz"
             inkscape:connector-curvature="0"
             id="path9924"
             d="m -668.72098,407.88486 c 2.81877,0.73042 4.79667,0.0874 7.07107,0 2.2744,-0.0874 4.46152,-0.33645 6.56599,-0.50508 2.10447,-0.16863 3.94147,-0.0957 6.06091,-0.50507 2.11944,-0.40941 5.0286,-0.83855 6.566,-2.02031 1.5374,-1.18176 3.49261,-2.02567 2.52538,-4.04061 -0.96723,-2.01494 -6.39018,-0.30158 -8.5863,-1.01015 -2.19612,-0.70857 -2.69504,-1.73683 -4.54569,-2.52538 -1.85065,-0.78855 -4.56528,-2.22974 -6.56599,-2.02031 -2.00071,0.20943 -3.01191,1.43764 -4.54568,2.52538 -1.53377,1.08774 -2.22669,3.00876 -4.54569,4.04061 -2.319,1.03185 -8.44981,-2.18396 -9.09137,1.01016 -0.64156,3.19412 6.2726,4.32034 9.09137,5.05076 z"
             style="opacity:0.9;fill:#999;fill-opacity:1;stroke:none;filter:url(#filter4331)" />
          <path
             inkscape:connector-curvature="0"
             id="path9926"
             d="m -615.1829,382.63104 6.06091,2.52538 4.04061,-2.52538 4.04061,1.01016 5.55584,2.52538 4.54569,1.51523 c 0,0 -1.51523,1.01015 -3.53554,0.50507 -2.0203,-0.50507 -6.56599,-1.01015 -6.56599,-1.01015 l -6.56599,3.03046 -4.04061,-1.01015 -3.53553,-2.02031 z"
             style="opacity:0.9;fill:#a6a7a7;fill-opacity:1;stroke:none;filter:url(#filter5968)" />
          <path
             inkscape:connector-curvature="0"
             id="path9928"
             d="m -642.70956,398.03587 7.07107,-0.50508 5.05076,1.01015 7.57614,-0.25253 7.07107,-1.01016 -6.06091,-0.75761 c 0,0 -3.78808,0.25254 -5.30331,0.50508 -1.51522,0.25253 -5.55583,-1.01016 -6.81853,-1.01016 -1.26269,0 -2.0203,0 -3.78807,0 -1.76776,0 -4.79822,2.02031 -4.79822,2.02031 z"
             style="opacity:0.5;fill:#b3b3b3;stroke:none;filter:url(#filter6074)" />
          <path
             inkscape:connector-curvature="0"
             id="path9930"
             d="m -639.42656,371.51937 2.52538,-1.51523 0.75761,-2.27285 2.52539,0.75762 1.01015,0.50507 0,3.03046 -2.02031,0 -2.77792,2.02031 z"
             style="opacity:0.67278287;fill:#9c9ea0;fill-opacity:1;stroke:none;filter:url(#filter6192)" />
          <path
             style="opacity:0.5;fill:#959798;fill-opacity:1;stroke:none;filter:url(#filter6074)"
             d="m -616.19305,395.51049 7.07107,-0.50508 5.05076,1.01015 7.57614,-0.25253 7.07107,-1.01016 -6.06091,-0.75761 c 0,0 -3.78808,0.25254 -5.30331,0.50508 -1.51522,0.25253 -5.55583,-1.01016 -6.81853,-1.01016 -1.26269,0 -2.0203,0 -3.78807,0 -1.76776,0 -4.79822,2.02031 -4.79822,2.02031 z"
             id="path9932"
             inkscape:connector-curvature="0" />
          <path
             inkscape:connector-curvature="0"
             id="path9934"
             d="m -623.76919,375.0549 7.07107,-0.50508 5.05076,1.01015 7.57614,-0.25253 7.07107,-1.01016 -6.06091,-0.75761 c 0,0 -3.78808,0.25254 -5.30331,0.50508 -1.51522,0.25253 -5.55583,-1.01016 -6.81853,-1.01016 -1.26269,0 -2.0203,0 -3.78807,0 -1.76776,0 -4.79822,2.02031 -4.79822,2.02031 z"
             style="opacity:0.5;fill:#959798;fill-opacity:1;stroke:none;filter:url(#filter6074)" />
          <path
             style="opacity:0.5;fill:#b3b3b3;stroke:none;filter:url(#filter6074)"
             d="m -645.48747,407.37978 7.07107,-0.50508 5.05076,1.01015 7.57614,-0.25253 7.07107,-1.01016 -6.06091,-0.75761 c 0,0 -3.78808,0.25254 -5.30331,0.50508 -1.51522,0.25253 -5.55583,-1.01016 -6.81853,-1.01016 -1.26269,0 -2.0203,0 -3.78807,0 -1.76776,0 -4.79822,2.02031 -4.79822,2.02031 z"
             id="path9936"
             inkscape:connector-curvature="0" />
          <path
             inkscape:connector-curvature="0"
             id="path9938"
             d="m -704.5814,397.5308 7.07107,-0.50508 5.05076,1.01015 7.57614,-0.25253 7.07107,-1.01016 -6.06091,-0.75761 c 0,0 -3.78808,0.25254 -5.30331,0.50508 -1.51522,0.25253 -5.55583,-1.01016 -6.81853,-1.01016 -1.26269,0 -2.0203,0 -3.78807,0 -1.76776,0 -4.79822,2.02031 -4.79822,2.02031 z"
             style="opacity:0.5;fill:#959798;fill-opacity:1;stroke:none;filter:url(#filter6074)" />
          <path
             inkscape:connector-curvature="0"
             id="path9940"
             d="m -676.04459,385.6615 4.04061,-2.52538 2.77792,0.25254 4.54568,-1.51523 5.55584,0 4.29315,-0.50508 -2.27284,3.283 -4.04061,-0.75761 -4.79823,1.01015 -4.29314,1.51523 z"
             style="opacity:0.6;fill:gray;stroke:none;filter:url(#filter6354)" />
        </g>
      </g>
    </g>
  </g>
</svg>
