<?xml version="1.0" encoding="UTF-8" standalone="no"?>
<!-- Created with Inkscape (http://www.inkscape.org/) -->

<svg
   xmlns:dc="http://purl.org/dc/elements/1.1/"
   xmlns:cc="http://creativecommons.org/ns#"
   xmlns:rdf="http://www.w3.org/1999/02/22-rdf-syntax-ns#"
   xmlns:svg="http://www.w3.org/2000/svg"
   xmlns="http://www.w3.org/2000/svg"
   xmlns:xlink="http://www.w3.org/1999/xlink"
   xmlns:sodipodi="http://sodipodi.sourceforge.net/DTD/sodipodi-0.dtd"
   xmlns:inkscape="http://www.inkscape.org/namespaces/inkscape"
   width="110"
   height="110"
   id="svg13195"
   version="1.1"
   inkscape:version="0.48.1 r9760"
   sodipodi:docname="fog.svg">
  <defs
     id="defs13197">
    <filter
       id="filter3398"
       inkscape:label="Glow"
       inkscape:menu="Shadows and Glows"
       inkscape:menu-tooltip="Glow of object's own color at the edges"
       x="-0.40000001"
       y="-0.40000001"
       width="1.8"
       height="1.8"
       color-interpolation-filters="sRGB">
      <feGaussianBlur
         stdDeviation="10.141145374449339"
         id="feGaussianBlur3400"
         result="result7" />
      <feColorMatrix
         id="feColorMatrix3402"
         result="result9"
         values="1 0 0 0 0.1 0 1 0 0 0.1 0 0 1 0 0.1 0 0 0 1 -0.5 " />
      <feColorMatrix
         values="10 0 0 0 0 0 10 0 0 0 0 0 10 0 0 0 0 0 5 0 "
         result="result9"
         id="feColorMatrix3404" />
      <feMerge
         id="feMerge3406">
        <feMergeNode
           inkscape:collect="always"
           id="feMergeNode3408"
           in="result7" />
        <feMergeNode
           inkscape:collect="always"
           id="feMergeNode3410"
           in="result9" />
      </feMerge>
    </filter>
    <linearGradient
       inkscape:collect="always"
       xlink:href="#linearGradient11911"
       id="linearGradient11687"
       gradientUnits="userSpaceOnUse"
       x1="-519.81396"
       y1="1365.2729"
       x2="-506.78979"
       y2="1459.9896" />
    <linearGradient
       inkscape:collect="always"
       id="linearGradient11911">
      <stop
         style="stop-color:red;stop-opacity:1"
         offset="0"
         id="stop11913" />
      <stop
         style="stop-color:#a00;stop-opacity:1"
         offset="1"
         id="stop11915" />
    </linearGradient>
    <radialGradient
       inkscape:collect="always"
       xlink:href="#linearGradient11919"
       id="radialGradient11689"
       gradientUnits="userSpaceOnUse"
       gradientTransform="matrix(1,0,0,0.92465717,0,106.3748)"
       cx="-514.89893"
       cy="1419.6248"
       fx="-514.89893"
       fy="1419.6248"
       r="54.836674" />
    <linearGradient
       inkscape:collect="always"
       id="linearGradient11919">
      <stop
         id="stop11923"
         offset="0"
         style="stop-color:white;stop-opacity:1" />
      <stop
         id="stop11921"
         offset="1"
         style="stop-color:#f2f2f2;stop-opacity:1;" />
    </linearGradient>
    <filter
       color-interpolation-filters="sRGB"
       inkscape:collect="always"
       id="filter6242"
       x="-0.088121623"
       width="1.1762432"
       y="-0.10542539"
       height="1.2108508">
      <feGaussianBlur
         inkscape:collect="always"
         stdDeviation="1.8310201"
         id="feGaussianBlur6244" />
    </filter>
    <linearGradient
       inkscape:collect="always"
       xlink:href="#linearGradient4164-7"
       id="linearGradient11691"
       gradientUnits="userSpaceOnUse"
       gradientTransform="translate(89.601991,-96.746523)"
       x1="-788.48383"
       y1="502.75394"
       x2="-652.08984"
       y2="460.25394" />
    <linearGradient
       inkscape:collect="always"
       id="linearGradient4164-7">
      <stop
         style="stop-color:#57646d;stop-opacity:1;"
         offset="0"
         id="stop4166-4" />
      <stop
         style="stop-color:#57646d;stop-opacity:0;"
         offset="1"
         id="stop4168-3" />
    </linearGradient>
    <filter
       color-interpolation-filters="sRGB"
       inkscape:collect="always"
       id="filter4184">
      <feGaussianBlur
         inkscape:collect="always"
         stdDeviation="1.0373252"
         id="feGaussianBlur4186" />
    </filter>
    <filter
       color-interpolation-filters="sRGB"
       inkscape:collect="always"
       id="filter6014"
       x="-0.065125003"
       width="1.13025"
       y="-0.18254012"
       height="1.3650802">
      <feGaussianBlur
         inkscape:collect="always"
         stdDeviation="0.98679277"
         id="feGaussianBlur6016" />
    </filter>
    <filter
       color-interpolation-filters="sRGB"
       inkscape:collect="always"
       id="filter6032"
       x="-0.029089874"
       width="1.0581797"
       y="-0.13716586"
       height="1.2743317">
      <feGaussianBlur
         inkscape:collect="always"
         stdDeviation="0.69736748"
         id="feGaussianBlur6034" />
    </filter>
    <filter
       color-interpolation-filters="sRGB"
       inkscape:collect="always"
       id="filter6268"
       x="-0.040561985"
       width="1.0811239"
       y="-0.32008684"
       height="1.6401737">
      <feGaussianBlur
         inkscape:collect="always"
         stdDeviation="1.5493216"
         id="feGaussianBlur6270" />
    </filter>
    <filter
       color-interpolation-filters="sRGB"
       inkscape:collect="always"
       id="filter4261"
       x="-0.059378814"
       width="1.1187576"
       y="-0.14350291"
       height="1.2870058">
      <feGaussianBlur
         inkscape:collect="always"
         stdDeviation="1.6347286"
         id="feGaussianBlur4263" />
    </filter>
    <linearGradient
       inkscape:collect="always"
       xlink:href="#linearGradient5872-2"
       id="linearGradient11693"
       gradientUnits="userSpaceOnUse"
       gradientTransform="translate(401.03056,131.8249)"
       x1="-1055.266"
       y1="282.49088"
       x2="-1066.5084"
       y2="226.34329" />
    <linearGradient
       id="linearGradient5872-2"
       inkscape:collect="always">
      <stop
         id="stop5874-0"
         offset="0"
         style="stop-color:#ccc;stop-opacity:1;" />
      <stop
         id="stop5876-4"
         offset="1"
         style="stop-color:gray;stop-opacity:1" />
    </linearGradient>
    <filter
       color-interpolation-filters="sRGB"
       inkscape:collect="always"
       id="filter4210">
      <feGaussianBlur
         inkscape:collect="always"
         stdDeviation="1.8857158"
         id="feGaussianBlur4212" />
    </filter>
    <filter
       color-interpolation-filters="sRGB"
       inkscape:collect="always"
       id="filter4331"
       x="-0.12062609"
       width="1.2412522"
       y="-0.35448036"
       height="1.7089607">
      <feGaussianBlur
         inkscape:collect="always"
         stdDeviation="1.918981"
         id="feGaussianBlur4333" />
    </filter>
    <filter
       color-interpolation-filters="sRGB"
       inkscape:collect="always"
       id="filter5968"
       x="-0.13387503"
       width="1.2677501"
       y="-0.42839974"
       height="1.8567995">
      <feGaussianBlur
         inkscape:collect="always"
         stdDeviation="1.3523419"
         id="feGaussianBlur5970" />
    </filter>
    <filter
       color-interpolation-filters="sRGB"
       inkscape:collect="always"
       id="filter6074"
       x="-0.032830186"
       width="1.0656604"
       y="-0.34800014"
       height="1.6960003">
      <feGaussianBlur
         inkscape:collect="always"
         stdDeviation="0.36618025"
         id="feGaussianBlur6076" />
    </filter>
    <filter
       color-interpolation-filters="sRGB"
       inkscape:collect="always"
       id="filter6192"
       x="-0.27733347"
       width="1.5546669"
       y="-0.29951984"
       height="1.5990397">
      <feGaussianBlur
         inkscape:collect="always"
         stdDeviation="0.7879194"
         id="feGaussianBlur6194" />
    </filter>
    <filter
       color-interpolation-filters="sRGB"
       inkscape:collect="always"
       id="filter6354"
       x="-0.11142861"
       width="1.2228572"
       y="-0.4679994"
       height="1.9359988">
      <feGaussianBlur
         inkscape:collect="always"
         stdDeviation="0.98489887"
         id="feGaussianBlur6356" />
    </filter>
    <linearGradient
       inkscape:collect="always"
       xlink:href="#linearGradient11911-3"
       id="linearGradient12130"
       gradientUnits="userSpaceOnUse"
       x1="-519.81396"
       y1="1365.2729"
       x2="-506.78979"
       y2="1459.9896" />
    <linearGradient
       inkscape:collect="always"
       id="linearGradient11911-3">
      <stop
         style="stop-color:red;stop-opacity:1"
         offset="0"
         id="stop11913-6" />
      <stop
         style="stop-color:#a00;stop-opacity:1"
         offset="1"
         id="stop11915-3" />
    </linearGradient>
    <radialGradient
       inkscape:collect="always"
       xlink:href="#linearGradient11919-4"
       id="radialGradient12132"
       gradientUnits="userSpaceOnUse"
       gradientTransform="matrix(1,0,0,0.92465717,0,106.3748)"
       cx="-514.89893"
       cy="1419.6248"
       fx="-514.89893"
       fy="1419.6248"
       r="54.836674" />
    <linearGradient
       inkscape:collect="always"
       id="linearGradient11919-4">
      <stop
         id="stop11923-6"
         offset="0"
         style="stop-color:white;stop-opacity:1" />
      <stop
         id="stop11921-3"
         offset="1"
         style="stop-color:#f2f2f2;stop-opacity:1;" />
    </linearGradient>
    <radialGradient
       inkscape:collect="always"
       xlink:href="#linearGradient6193"
       id="radialGradient12134"
       gradientUnits="userSpaceOnUse"
       gradientTransform="matrix(1.9168627,-0.01173137,0.00322256,0.52655394,-344.84761,416.4042)"
       cx="372.87277"
       cy="845.63574"
       fx="372.87277"
       fy="845.63574"
       r="56.785618" />
    <linearGradient
       id="linearGradient6193">
      <stop
         style="stop-color:#90a2ca;stop-opacity:0.60504204;"
         offset="0"
         id="stop6195" />
      <stop
         style="stop-color:#97cadf;stop-opacity:1;"
         offset="1"
         id="stop6197" />
    </linearGradient>
    <filter
       color-interpolation-filters="sRGB"
       inkscape:collect="always"
       id="filter6251"
       x="-0.035960764"
       width="1.0719215"
       y="-0.18098734"
       height="1.3619747">
      <feGaussianBlur
         inkscape:collect="always"
         stdDeviation="1.3944642"
         id="feGaussianBlur6253" />
    </filter>
    <filter
       color-interpolation-filters="sRGB"
       inkscape:collect="always"
       id="filter12654"
       x="-0.36603069"
       width="1.7320614"
       y="-0.16556515"
       height="1.3311303">
      <feGaussianBlur
         inkscape:collect="always"
         stdDeviation="0.67251432"
         id="feGaussianBlur12656" />
    </filter>
    <filter
       color-interpolation-filters="sRGB"
       inkscape:collect="always"
       id="filter12734"
       x="-0.14109093"
       width="1.2821819"
       y="-0.30038697"
       height="1.600774">
      <feGaussianBlur
         inkscape:collect="always"
         stdDeviation="0.83348"
         id="feGaussianBlur12736" />
    </filter>
    <filter
       color-interpolation-filters="sRGB"
       inkscape:collect="always"
       id="filter12776"
       x="-0.084893636"
       width="1.1697873"
       y="-0.20461529"
       height="1.4092306">
      <feGaussianBlur
         inkscape:collect="always"
         stdDeviation="0.71425825"
         id="feGaussianBlur12778" />
    </filter>
    <filter
       color-interpolation-filters="sRGB"
       inkscape:collect="always"
       id="filter12929"
       x="-0.10591463"
       width="1.2118293"
       y="-0.59896576"
       height="2.1979315">
      <feGaussianBlur
         inkscape:collect="always"
         stdDeviation="2.198706"
         id="feGaussianBlur12931" />
    </filter>
  </defs>
  <sodipodi:namedview
     id="base"
     pagecolor="#ffffff"
     bordercolor="#666666"
     borderopacity="1.0"
     inkscape:pageopacity="0.0"
     inkscape:pageshadow="2"
     inkscape:zoom="0.35"
     inkscape:cx="-205"
     inkscape:cy="-82.142854"
     inkscape:document-units="px"
     inkscape:current-layer="layer1"
     showgrid="false"
     fit-margin-top="0"
     fit-margin-left="0"
     fit-margin-right="0"
     fit-margin-bottom="0"
     inkscape:window-width="1280"
     inkscape:window-height="930"
     inkscape:window-x="0"
     inkscape:window-y="32"
     inkscape:window-maximized="1" />
  <metadata
     id="metadata13200">
    <rdf:RDF>
      <cc:Work
         rdf:about="">
        <dc:format>image/svg+xml</dc:format>
        <dc:type
           rdf:resource="http://purl.org/dc/dcmitype/StillImage" />
        <dc:title></dc:title>
      </cc:Work>
    </rdf:RDF>
  </metadata>
  <g
     inkscape:label="Ebene 1"
     inkscape:groupmode="layer"
     id="layer1"
     transform="translate(-179.28571,-340.21933)">
    <g
       transform="translate(-224.43182,-241.0618)"
       style="display:inline"
       id="frost">
      <rect
         y="581.28113"
         x="403.71753"
         height="110"
         width="110"
         id="rect6134"
         style="opacity:0;color:black;fill:#520;fill-opacity:1;fill-rule:nonzero;stroke:none;stroke-width:6.80000019;marker:none;visibility:visible;display:inline;overflow:visible;enable-background:accumulate" />
      <g
         transform="translate(4.9189525,-27.347014)"
         id="g6234">
        <g
           transform="matrix(0.14572123,0.03709349,-0.03709349,0.14572123,465.10843,419.43212)"
           id="g12814">
          <path
             sodipodi:type="star"
             style="color:black;fill:#ececec;fill-opacity:1;fill-rule:nonzero;stroke:none;stroke-width:0.55900002;marker:none;visibility:visible;display:inline;overflow:visible;enable-background:accumulate"
             id="path12816"
             sodipodi:sides="3"
             sodipodi:cx="-516.28754"
             sodipodi:cy="1424.0892"
             sodipodi:r1="63.00787"
             sodipodi:r2="15.972712"
             sodipodi:arg1="0.57790194"
             sodipodi:arg2="2.018743"
             inkscape:flatsided="true"
             inkscape:rounded="0.09"
             inkscape:randomized="0"
             d="m -463.51148,1458.5084 c -5.36541,8.227 -104.5299,2.8367 -108.97196,-5.9233 -4.44206,-8.7601 49.80827,-91.944 59.61575,-91.4109 9.80748,0.5331 54.72163,89.1072 49.35621,97.3342 z"
             inkscape:transform-center-x="-0.57962825"
             inkscape:transform-center-y="-56.664885"
             transform="matrix(3.7775207,-0.18464775,0.18464775,3.7775207,2137.3447,-3943.0479)" />
          <path
             transform="matrix(3.6303529,-0.17745409,0.17745409,3.6303529,2071.5616,-3729.3966)"
             inkscape:transform-center-y="-54.457255"
             inkscape:transform-center-x="-0.55700521"
             d="m -463.51148,1458.5084 c -5.36541,8.227 -104.5299,2.8367 -108.97196,-5.9233 -4.44206,-8.7601 49.80827,-91.944 59.61575,-91.4109 9.80748,0.5331 54.72163,89.1072 49.35621,97.3342 z"
             inkscape:randomized="0"
             inkscape:rounded="0.09"
             inkscape:flatsided="true"
             sodipodi:arg2="2.018743"
             sodipodi:arg1="0.57790194"
             sodipodi:r2="15.972712"
             sodipodi:r1="63.00787"
             sodipodi:cy="1424.0892"
             sodipodi:cx="-516.28754"
             sodipodi:sides="3"
             id="path12818"
             style="color:black;fill:url(#linearGradient12130);fill-opacity:1;fill-rule:nonzero;stroke:none;stroke-width:0.55900002;marker:none;visibility:visible;display:inline;overflow:visible;enable-background:accumulate"
             sodipodi:type="star" />
          <path
             sodipodi:type="star"
             style="color:black;fill:url(#radialGradient12132);fill-opacity:1;fill-rule:nonzero;stroke:none;stroke-width:0.55900002;marker:none;visibility:visible;display:inline;overflow:visible;enable-background:accumulate"
             id="path12820"
             sodipodi:sides="3"
             sodipodi:cx="-516.28754"
             sodipodi:cy="1424.0892"
             sodipodi:r1="63.00787"
             sodipodi:r2="15.972712"
             sodipodi:arg1="0.57790194"
             sodipodi:arg2="2.018743"
             inkscape:flatsided="true"
             inkscape:rounded="0.09"
             inkscape:randomized="0"
             d="m -463.51148,1458.5084 c -5.36541,8.227 -104.5299,2.8367 -108.97196,-5.9233 -4.44206,-8.7601 49.80827,-91.944 59.61575,-91.4109 9.80748,0.5331 54.72163,89.1072 49.35621,97.3342 z"
             inkscape:transform-center-x="-0.40798395"
             inkscape:transform-center-y="-39.887043"
             transform="matrix(2.6590451,-0.12997591,0.12997591,2.6590451,1637.3933,-2319.2977)" />
          <text
             xml:space="preserve"
             style="font-size:268.69229126px;font-style:normal;font-variant:normal;font-weight:normal;font-stretch:normal;line-height:125%;letter-spacing:0px;word-spacing:0px;fill:black;fill-opacity:1;stroke:none;font-family:Jomolhari;-inkscape-font-specification:Jomolhari"
             x="452.03351"
             y="1587.6368"
             id="text12822"
             sodipodi:linespacing="125%"
             transform="matrix(0.99920387,0.03989521,-0.03989521,0.99920387,0,0)"><tspan
               sodipodi:role="line"
               id="tspan12824"
               x="452.03351"
               y="1587.6368">!</tspan></text>
        </g>
        <g
           id="g12933"
           transform="matrix(0.95142437,0,0,0.95142437,19.396179,62.673265)">
          <g
             transform="translate(72.910466,-223.5921)"
             id="g12780">
            <path
               inkscape:connector-curvature="0"
               style="fill:url(#radialGradient12134);fill-opacity:1;stroke:none"
               d="m 386.71875,839.65625 c -1.92265,0.0161 -3.83451,0.0806 -5.75,0.1875 -10.7793,0.60182 -21.39179,2.99465 -32,5 -6.0394,1.14167 -13.5517,-0.24151 -18,4 -2.75059,2.62273 -4.58457,7.54549 -3,11 1.10891,2.41751 3.06058,4.09653 5.4375,5.34375 0.0129,0.007 0.0191,0.0238 0.0312,0.0312 L 334.25,870 l 0.65625,-2.375 0.40625,3.65625 -0.40625,6.4375 1.9375,-3.875 0.1875,-2.34375 -0.625,-3.03125 0.9375,-1.53125 0.0312,0 c 0.0487,-0.0296 0.125,-0.0937 0.125,-0.0937 3.76677,1.21873 7.94155,1.94754 11.46875,3 4.48213,1.33739 10.12615,-0.073 13.8125,2.84375 0.36819,0.29133 0.59171,0.72486 0.75,1.1875 l 0.0625,1.25 0.4375,1.78125 0.0937,1.21875 0.25,1.21875 0.0312,1.65625 0.28125,2.53125 0.0937,-2.09375 0.25,1.65625 -0.4375,2.75 0,1.6875 0.28125,2.34375 0.0312,-1.15625 0.53125,4.90625 0.0937,-2.59375 0.34375,-4.90625 0.46875,-3.9375 -0.1875,-2.46875 0.34375,-2.09375 0.28125,-0.125 0,-0.28125 c 0.38088,0.10288 0.79423,0.18445 1.09375,0.15625 0.83816,-0.0789 2.3125,-1 2.3125,-1 0.0127,0.21442 0.0464,0.43868 0.0625,0.65625 l 0.40625,-0.53125 -0.0625,1 0.4375,3.9375 0.375,4.9375 0.0625,2.59375 0.53125,-4.9375 0.0625,1.1875 0.28125,-2.375 0,-1.6875 -0.4375,-2.75 0.25,-1.65625 0.0937,2.09375 0.28125,-2.53125 0.0312,-1.65625 0.15625,-0.8125 0.1875,-0.21875 2,-0.625 c 0.29122,-0.3549 0.5771,-0.69349 0.9375,-0.96875 5.89612,-4.50324 13.74599,-7.85262 21.125,-7.09375 l -0.15625,2.25 0.4375,3.9375 0.34375,4.9375 0.0937,2.59375 0.53125,-4.9375 0.0625,1.1875 0.28125,-2.375 0,-1.6875 -0.4375,-2.75 0.25,-1.65625 0.0937,2.09375 0.25,-2.53125 0,-0.40625 0.9375,1.5 0,2.46875 0.53125,3.09375 0.5625,-3.4375 0,4.1875 0.75,-3.40625 -0.125,8.03125 -0.53125,3.96875 0.53125,3.875 0.4375,2.90625 0.3125,-6.96875 1.1875,-3.5625 0.75,-2.46875 0.75,-2.78125 -0.53125,-3 -0.21875,-2.375 0.21875,-1.625 0.71875,-2.09375 0.21875,-0.0625 c 5.5545,-1.95846 11.87786,-0.24871 17.75,-1 1.49784,-0.19164 3.45229,-0.8945 5.03125,-0.625 l 0.125,1.71875 1.0625,3.125 0.21875,2.125 0.625,2.125 0.0625,2.875 0.6875,4.40625 0.21875,-3.65625 0.625,2.90625 -1.0625,4.78125 0,2.96875 0.6875,4.09375 0.0937,-2.0625 1.28125,8.59375 0.21875,-4.5 0.875,-8.59375 1.0625,-6.875 -0.4375,-4.3125 0.875,-3.65625 0.625,-0.21875 0.21875,-3.21875 1.6875,-3.15625 c 0.85005,-0.43626 1.60853,-1.02883 2.21875,-1.84375 1.80922,-2.41616 0.9197,-6.67066 -1,-9 -3.55368,-4.31202 -10.63009,-3.45525 -16,-5 -6.29373,-1.81051 -12.52496,-4.01883 -19,-5 -5.69047,-0.86229 -11.48206,-1.23587 -17.25,-1.1875 z"
               id="path6191" />
            <path
               style="opacity:0.74923544;fill:white;stroke:none;filter:url(#filter6251)"
               d="m 329.81598,856.05443 c -0.42324,-1.8563 0.88687,-3.85378 2.12133,-5.3033 1.33665,-1.56951 3.32461,-2.60337 5.3033,-3.18199 3.9606,-1.15818 8.27496,0.11834 12.37436,-0.35355 7.04903,-0.81143 13.82583,-3.30853 20.85965,-4.24264 7.37482,-0.97939 14.8453,-1.81866 22.27387,-1.41421 5.49438,0.29914 10.88365,1.67277 16.26345,2.82842 4.63906,0.99653 13.78859,3.53554 13.78859,3.53554 0,0 -12.71645,-1.13851 -19.09189,-1.41422 -9.42002,-0.40738 -18.8867,-1.12066 -28.28427,-0.35355 -9.42396,0.76926 -18.51175,4.12161 -27.93072,4.94975 -2.93495,0.25805 -6.7555,-2.08333 -8.83883,0 -1.25,1.25 0.78091,3.71737 0,5.3033 -0.85386,1.73408 -2.66509,3.61886 -4.59619,3.53553 -1.91669,-0.0827 -3.81617,-2.0186 -4.24265,-3.88908 z"
               id="path6233"
               inkscape:connector-curvature="0"
               sodipodi:nodetypes="aaaaaaacaaaaaaa" />
            <path
               style="fill:white;fill-opacity:1;stroke:none;filter:url(#filter12654)"
               d="m 430.48426,862.5185 c 1.98235,5.22718 -0.99503,4.93978 1.34375,6 1.47513,7.47079 0.4008,1.45744 2.5625,-2.34375 0.63991,-4.60713 1.61748,-3.89561 -3.90625,-3.65625 z m 0.34375,6.09375 c 0.036,1.12554 0.652,-0.4547 0,0 z"
               id="path12543"
               inkscape:connector-curvature="0"
               sodipodi:nodetypes="cccccc" />
            <path
               style="fill:white;stroke:none;filter:url(#filter12734)"
               d="m 362.82173,870.6291 2.36296,3.0074 2.36295,1.07407 3.43704,-1.5037 2.79259,-3.43703 3.22221,-1.71852 -8.16295,2.14815 z"
               id="path12560"
               inkscape:connector-curvature="0" />
            <path
               style="opacity:0.72171254;fill:white;stroke:none;filter:url(#filter12776)"
               d="m 398.91056,863.96985 2.36296,2.57777 1.28889,3.22222 0.85926,-4.29629 1.07407,-3.22222 4.29629,-0.85926 -9.23702,0 -10.95554,2.14815 z"
               id="path12738"
               inkscape:connector-curvature="0" />
          </g>
          <path
             inkscape:connector-curvature="0"
             id="path12855"
             d="m 418.93139,635.86115 7.29104,-2.43035 9.11381,-2.12656 7.89863,-0.30379 10.93657,-0.60759 14.5821,-0.30379 -8.20243,1.82276 -17.31624,0.60759 -5.16449,1.21517 -9.72139,2.43035 -5.16449,2.73414 z"
             style="fill:white;stroke:none;filter:url(#filter12929)" />
        </g>
      </g>
    </g>
  </g>
</svg>
